<svg aria-hidden="true" style="position: absolute; width: 0; height: 0; overflow: hidden;" version="1.1" xmlns="http://www.w3.org/2000/svg" xmlns:xlink="http://www.w3.org/1999/xlink">
<defs>
<symbol id="icon-onion" viewBox="0 0 32 32">
<path d="M14.874 11.167l-0.612 3.040c-0.2 1.001-1.162 1.785-2.19 1.785h-2.072v14.008c0 1.104-0.841 2-1.951 2h-3.019c-1.11 0-2.013-0.898-2.013-2.001v-14.007h-1.006c-1.11 0-2.013-0.897-2.013-2.001v-3.001c0-1.103 0.903-2.001 2.013-2.001h1.006v-2.986c0-3.287 2.676-5.962 5.977-5.99 0.021-0.001 0.039-0.012 0.061-0.012h4.026c0.555 0 0.919 0.447 0.919 0.999v5c0 0.553-0.364 1.004-0.919 1.004h-3.020l-0.001 1.985h3.019c0.566 0 1.088 0.239 1.43 0.655 0.343 0.415 0.476 0.971 0.365 1.523zM9.092 10.99c-0.014 0.001-0.025 0.008-0.039 0.008v0c-0.556-0.001-1.007-0.449-1.006-1.001v-0.007c0 0 0 0 0 0s0 0 0 0l0.002-3.987c0-0.553 0.45-1 1.006-1h3.019v-3.001h-2.98c-0.017 0-0.031 0.009-0.049 0.009-2.214 0-4.015 1.791-4.015 3.992v4.002c0 0.553-0.451 1.001-1.007 1.001-0.027 0-0.050-0.014-0.077-0.016h-1.935v3.001h2.012c0.556 0 1.007 0.448 1.007 1.001 0 0.052-0.022 0.096-0.030 0.146v14.862l3.049-0.001v-14.997c0-0.004-0.002-0.007-0.002-0.010 0-0.553 0.45-1.001 1.006-1.001h3.019c0.073 0 0.203-0.105 0.216-0.175l0.569-2.826h-3.765z"></path>
</symbol>
<symbol id="icon-tomato" viewBox="0 0 37 32">
<path d="M14.874 11.167l-0.612 3.040c-0.2 1.001-1.162 1.785-2.19 1.785h-2.072v14.008c0 1.104-0.841 2-1.951 2h-3.019c-1.11 0-2.013-0.898-2.013-2.001v-14.007h-1.006c-1.11 0-2.013-0.897-2.013-2.001v-3.001c0-1.103 0.903-2.001 2.013-2.001h1.006v-2.986c0-3.287 2.676-5.962 5.977-5.99 0.021-0.001 0.039-0.012 0.061-0.012h4.026c0.555 0 0.919 0.447 0.919 0.999v5c0 0.553-0.364 1.004-0.919 1.004h-3.020l-0.001 1.985h3.019c0.566 0 1.088 0.239 1.43 0.655 0.343 0.415 0.476 0.971 0.365 1.523zM9.092 10.99c-0.014 0.001-0.025 0.008-0.039 0.008v0c-0.556-0.001-1.007-0.449-1.006-1.001v-0.007c0 0 0 0 0 0s0 0 0 0l0.002-3.987c0-0.553 0.45-1 1.006-1h3.019v-3.001h-2.98c-0.017 0-0.031 0.009-0.049 0.009-2.214 0-4.015 1.791-4.015 3.992v4.002c0 0.553-0.451 1.001-1.007 1.001-0.027 0-0.050-0.014-0.077-0.016h-1.935v3.001h2.012c0.556 0 1.007 0.448 1.007 1.001 0 0.052-0.022 0.096-0.030 0.146v14.862l3.049-0.001v-14.997c0-0.004-0.002-0.007-0.002-0.010 0-0.553 0.45-1.001 1.006-1.001h3.019c0.073 0 0.203-0.105 0.216-0.175l0.569-2.826h-3.765z"></path>
</symbol>
<symbol id="icon-garlic" viewBox="0 0 25 32">
<path d="M14.874 11.167l-0.612 3.040c-0.2 1.001-1.162 1.785-2.19 1.785h-2.072v14.008c0 1.104-0.841 2-1.951 2h-3.019c-1.11 0-2.013-0.898-2.013-2.001v-14.007h-1.006c-1.11 0-2.013-0.897-2.013-2.001v-3.001c0-1.103 0.903-2.001 2.013-2.001h1.006v-2.986c0-3.287 2.676-5.962 5.977-5.99 0.021-0.001 0.039-0.012 0.061-0.012h4.026c0.555 0 0.919 0.447 0.919 0.999v5c0 0.553-0.364 1.004-0.919 1.004h-3.020l-0.001 1.985h3.019c0.566 0 1.088 0.239 1.43 0.655 0.343 0.415 0.476 0.971 0.365 1.523zM9.092 10.99c-0.014 0.001-0.025 0.008-0.039 0.008v0c-0.556-0.001-1.007-0.449-1.006-1.001v-0.007c0 0 0 0 0 0s0 0 0 0l0.002-3.987c0-0.553 0.45-1 1.006-1h3.019v-3.001h-2.98c-0.017 0-0.031 0.009-0.049 0.009-2.214 0-4.015 1.791-4.015 3.992v4.002c0 0.553-0.451 1.001-1.007 1.001-0.027 0-0.050-0.014-0.077-0.016h-1.935v3.001h2.012c0.556 0 1.007 0.448 1.007 1.001 0 0.052-0.022 0.096-0.030 0.146v14.862l3.049-0.001v-14.997c0-0.004-0.002-0.007-0.002-0.010 0-0.553 0.45-1.001 1.006-1.001h3.019c0.073 0 0.203-0.105 0.216-0.175l0.569-2.826h-3.765z"></path>
</symbol>
<symbol id="icon-facebook-svgrepo-com" viewBox="0 0 15 32">
<path d="M14.874 11.167l-0.612 3.040c-0.2 1.001-1.162 1.785-2.19 1.785h-2.072v14.008c0 1.104-0.841 2-1.951 2h-3.019c-1.11 0-2.013-0.898-2.013-2.001v-14.007h-1.006c-1.11 0-2.013-0.897-2.013-2.001v-3.001c0-1.103 0.903-2.001 2.013-2.001h1.006v-2.986c0-3.287 2.676-5.962 5.977-5.99 0.021-0.001 0.039-0.012 0.061-0.012h4.026c0.555 0 0.919 0.447 0.919 0.999v5c0 0.553-0.364 1.004-0.919 1.004h-3.020l-0.001 1.985h3.019c0.566 0 1.088 0.239 1.43 0.655 0.343 0.415 0.476 0.971 0.365 1.523zM9.092 10.99c-0.014 0.001-0.025 0.008-0.039 0.008v0c-0.556-0.001-1.007-0.449-1.006-1.001v-0.007c0 0 0 0 0 0s0 0 0 0l0.002-3.987c0-0.553 0.45-1 1.006-1h3.019v-3.001h-2.98c-0.017 0-0.031 0.009-0.049 0.009-2.214 0-4.015 1.791-4.015 3.992v4.002c0 0.553-0.451 1.001-1.007 1.001-0.027 0-0.050-0.014-0.077-0.016h-1.935v3.001h2.012c0.556 0 1.007 0.448 1.007 1.001 0 0.052-0.022 0.096-0.030 0.146v14.862l3.049-0.001v-14.997c0-0.004-0.002-0.007-0.002-0.010 0-0.553 0.45-1.001 1.006-1.001h3.019c0.073 0 0.203-0.105 0.216-0.175l0.569-2.826h-3.765z"></path>
</symbol>
<symbol id="icon-grill-svgrepo-com" viewBox="0 0 32 32">
<path d="M11.609 3.609l-1 1c0.484 0.547 0.786 1.265 0.805 2.053l0 0.004c0 0.003 0 0.007 0 0.011 0 0.754-0.306 1.437-0.8 1.932l-1.667 1.667c-0.242 0.242-0.576 0.392-0.945 0.392-0.737 0-1.335-0.598-1.335-1.335 0-0.368 0.149-0.701 0.39-0.943l1.667-1.667c-0.482-0.548-0.782-1.266-0.8-2.054l-0-0.004c0-0.003-0-0.007-0-0.011 0-0.754 0.306-1.437 0.8-1.932l1-1c0.24-0.232 0.566-0.374 0.926-0.374 0.736 0 1.333 0.597 1.333 1.333 0 0.36-0.143 0.687-0.375 0.927l0-0zM18.276 1.724c-0.241-0.241-0.575-0.39-0.943-0.39s-0.701 0.149-0.943 0.39l-1 1c-0.494 0.494-0.8 1.177-0.8 1.932 0 0.004 0 0.008 0 0.012v-0.001c0.018 0.792 0.318 1.51 0.803 2.061l-0.003-0.004-1.667 1.667c-0.232 0.24-0.374 0.566-0.374 0.926 0 0.736 0.597 1.333 1.333 1.333 0.36 0 0.687-0.143 0.927-0.375l1.666-1.666c0.497-0.495 0.805-1.18 0.805-1.937 0-0.002 0-0.004 0-0.006v0c-0.018-0.792-0.318-1.51-0.803-2.061l0.003 0.004 1-1c0.24-0.241 0.388-0.573 0.388-0.94 0-0.369-0.15-0.704-0.393-0.945l-0-0zM24.943 1.724c-0.241-0.241-0.575-0.39-0.943-0.39s-0.701 0.149-0.943 0.39l-1 1c-0.494 0.494-0.8 1.177-0.8 1.932 0 0.004 0 0.008 0 0.012v-0.001c0.018 0.792 0.318 1.51 0.803 2.061l-0.003-0.004-1.667 1.667c-0.232 0.24-0.374 0.566-0.374 0.926 0 0.736 0.597 1.333 1.333 1.333 0.36 0 0.687-0.143 0.927-0.375l1.666-1.666c0.497-0.495 0.805-1.18 0.805-1.937 0-0.002 0-0.004 0-0.006v0c-0.018-0.792-0.318-1.51-0.803-2.061l0.003 0.004 1-1c0.24-0.241 0.388-0.573 0.388-0.94 0-0.369-0.15-0.704-0.393-0.945l-0-0zM30.667 14.667c-0.003 4.519-2.501 8.454-6.191 10.502l-0.061 0.031 3.2 3.2c0.232 0.24 0.374 0.566 0.374 0.926 0 0.736-0.597 1.333-1.333 1.333-0.36 0-0.687-0.143-0.927-0.375l-4-4-0.011-0.016c-0.915 0.252-1.967 0.397-3.052 0.397h-5.334c-1.084-0.002-2.133-0.148-3.13-0.419l0.084 0.019-0.011 0.016-4 4c-0.24 0.232-0.566 0.374-0.926 0.374-0.736 0-1.333-0.597-1.333-1.333 0-0.36 0.143-0.687 0.375-0.927l3.2-3.2c-3.753-2.078-6.253-6.012-6.257-10.53v-0.001c0-0.736 0.597-1.333 1.333-1.333v0h26.667c0.736 0 1.333 0.597 1.333 1.333v0zM27.905 16h-23.811c0.080 0.514 0.186 0.964 0.323 1.4l-0.018-0.067h11.6c0.736 0 1.333 0.597 1.333 1.333s-0.597 1.333-1.333 1.333v0h-10.315c1.705 2.429 4.493 3.998 7.648 4h5.334c3.155-0.002 5.943-1.571 7.628-3.97l0.020-0.030h-4.981c-0.736 0-1.333-0.597-1.333-1.333s0.597-1.333 1.333-1.333v0h6.267c0.119-0.369 0.226-0.819 0.298-1.28l0.007-0.053z"></path>
</symbol>
<symbol id="icon-location-svgrepo-com" viewBox="0 0 32 32">
<path d="M16 32l-0.933-0.8c-0.4-0.4-11.067-9.2-11.067-19.2 0-6.667 5.333-12 12-12s12 5.333 12 12c0 10-10.667 18.8-11.067 19.2l-0.933 0.8zM16 2.667c-5.2 0-9.333 4.133-9.333 9.333 0 7.2 6.8 14 9.333 16.4 2.533-2.4 9.333-9.2 9.333-16.4 0-5.2-4.267-9.333-9.333-9.333zM16 17.333c-2.933 0-5.333-2.4-5.333-5.333s2.4-5.333 5.333-5.333 5.333 2.4 5.333 5.333-2.4 5.333-5.333 5.333zM16 9.333c-1.467 0-2.667 1.2-2.667 2.667s1.2 2.667 2.667 2.667 2.667-1.2 2.667-2.667-1.2-2.667-2.667-2.667z"></path>
</symbol>
<symbol id="icon-telephone-svgrepo-com" viewBox="0 0 32 32">
<path d="M16 0c-8.837 0-16 7.163-16 16s7.163 16 16 16 16-7.163 16-16-7.163-16-16-16zM16 29.5c-7.456 0-13.5-6.044-13.5-13.5s6.044-13.5 13.5-13.5 13.5 6.044 13.5 13.5-6.044 13.5-13.5 13.5z"></path>
<path d="M20.445 23.998c0.356 0.001 3.555-2.364 3.555-2.666s-3.579-2.557-3.889-2.557-1.349 1.246-1.629 1.385c-0.281 0.139-2.031 0.089-3.981-1.861s-2.617-4.194-2.617-4.547 1.627-1.441 1.672-1.697-2.145-4.055-2.5-4.055-3.056 3.281-3.056 3.555 0.247 3.791 4.701 8.244 7.388 4.197 7.744 4.199z"></path>
</symbol>
<symbol id="icon-close-modalka" viewBox="0 0 32 32">
<path d="M7.494 6.621a2.519 2.519 0 0 0-.472.359l.001-.001c-.527.505-.657 1.068-.369 1.567.09.154 1.537 1.657 3.715 3.857l3.568 3.604-3.6 3.61c-2.806 2.813-3.628 3.665-3.721 3.865-.243.516-.115 1.039.374 1.529.49.489 1.012.617 1.529.374.199-.095 1.053-.916 3.869-3.725l3.613-3.604 3.613 3.604c2.816 2.809 3.67 3.631 3.869 3.725.516.243 1.039.115 1.529-.374.489-.49.617-1.012.374-1.529-.093-.199-.915-1.052-3.721-3.865l-3.601-3.61 3.569-3.607c2.135-2.157 3.626-3.706 3.715-3.856.294-.506.148-1.088-.403-1.594-.489-.451-.979-.563-1.439-.329-.143.073-1.519 1.398-3.849 3.706-1.994 1.977-3.645 3.587-3.67 3.58a351.043 351.043 0 0 1-3.665-3.601l.007.007C10.031 8.038 8.633 6.691 8.492 6.62a1.168 1.168 0 0 0-1.005.004l.007-.003z"/>
</symbol>
<symbol id="icon-spoon-advantages" viewBox="0 0 32 32">
<path  d="M15.373 13.835c-0.837-1.010-1.344-2.319-1.344-3.746 0-0.002 0-0.003 0-0.005v0c0-4.942 5.92-9.877 11.842-9.877 3.27 0.001 5.921 2.652 5.921 5.922v0c0 5.922-4.935 11.845-9.881 11.845-0.001 0-0.002 0-0.003 0-1.428 0-2.737-0.508-3.756-1.353l0.010 0.008-14.582 14.584c-0.351 0.324-0.822 0.522-1.339 0.522-1.092 0-1.977-0.885-1.977-1.977 0-0.517 0.199-0.988 0.524-1.341l-0.001 0.001 14.585-14.584z"></path>
</symbol>
<symbol id="icon-dollar-advantages" viewBox="0 0 32 32">
<path  d="M16 0.762c-8.381 0-15.238 6.857-15.238 15.238s6.857 15.238 15.238 15.238 15.238-6.857 15.238-15.238-6.857-15.238-15.238-15.238zM16 28.191c-6.705 0-12.191-5.486-12.191-12.191s5.486-12.191 12.191-12.191c6.704 0 12.19 5.486 12.19 12.191s-5.486 12.191-12.19 12.191z"></path>
<path  d="M17.981 14.477h-3.961c-0.762 0-1.371-0.61-1.371-1.371 0-0.762 0.609-1.371 1.371-1.371h5.638c0.914 0 1.523-0.61 1.523-1.525s-0.609-1.523-1.523-1.523h-2.134v-1.371c0-0.914-0.609-1.523-1.523-1.523s-1.523 0.609-1.523 1.523v1.371h-0.457c-2.44 0.002-4.417 1.979-4.419 4.419v0c0.003 2.439 1.98 4.416 4.419 4.418h3.809c0.762 0 1.371 0.61 1.371 1.371 0 0.762-0.609 1.371-1.371 1.371h-5.638c-0.914 0-1.525 0.61-1.525 1.525s0.61 1.523 1.525 1.523h2.286v1.371c0 0.914 0.609 1.523 1.523 1.523s1.523-0.609 1.523-1.523v-1.371h0.457c2.44-0.002 4.417-1.979 4.419-4.419v-0c-0.003-2.439-1.98-4.416-4.419-4.418h-0z"></path>
</symbol>
<symbol id="icon-choc-advantages" viewBox="0 0 31 32">
<path  d="M13.045 0.456l8.306 8.316 0.088-0.088c0.17-0.167 0.403-0.27 0.661-0.27 0.25 0 0.477 0.097 0.646 0.256l-0-0 0.963 0.963c0.337 0.337 0.348 0.85 0.092 1.207l-0.004 0.008-0.158 0.212 6.797 6.797c0.607 0.607 0.607 1.578 0 2.185l-10.406 10.406c-0.607 0.607-1.578 0.607-2.185 0l-4.907-4.907c-0.171 0.215-0.434 0.352-0.728 0.352-0.257 0-0.49-0.105-0.658-0.274l-2.869-2.869c-0.167-0.17-0.27-0.403-0.27-0.661 0-0.25 0.097-0.477 0.256-0.646l-0 0 0.007-0.008 0.085-0.084-8.306-8.306c-0.607-0.607-0.607-1.578 0-2.185l10.406-10.406c0.607-0.607 1.578-0.607 2.185 0v0.001zM20.308 9.813l-1.938-1.937c-0.119-0.122-0.285-0.199-0.469-0.199s-0.35 0.076-0.469 0.198l-3.95 3.951c-0.122 0.121-0.197 0.289-0.197 0.474s0.075 0.353 0.197 0.474l1.93 1.93 0.673-0.673-1.727-1.727 3.542-3.553 1.731 1.737 0.676-0.676zM14.707 15.41l-1.935-1.935c-0.119-0.122-0.285-0.198-0.469-0.198s-0.35 0.076-0.469 0.198l-3.962 3.962c-0.265 0.254-0.265 0.673 0 0.938l1.933 1.933 0.68-0.68-1.732-1.726 3.553-3.542 1.726 1.725 0.675-0.674zM7.528 6.834l3.95 3.95c0.265 0.265 0.684 0.265 0.938-0.011l3.95-3.95c0.122-0.117 0.199-0.281 0.199-0.463 0-0 0-0 0-0v0h0.011c0-0.166-0.066-0.342-0.199-0.474l-3.95-3.95c-0.121-0.123-0.289-0.198-0.474-0.198s-0.354 0.076-0.474 0.198l-0 0-3.95 3.961c-0.265 0.254-0.265 0.673 0 0.938zM1.933 12.428l3.95 3.95c0.265 0.265 0.684 0.265 0.938 0l3.95-3.95c0.123-0.117 0.199-0.281 0.199-0.464 0-0.004-0-0.008-0-0.012v0.001h0.011c0-0.177-0.066-0.342-0.199-0.474l-3.95-3.95c-0.119-0.122-0.285-0.199-0.469-0.199s-0.35 0.076-0.469 0.198l-3.962 3.962c-0.265 0.254-0.265 0.673 0 0.938zM9.583 22.088l2.606 2.607 10.633-14.389-0.723-0.723-12.516 12.504z"></path>
<path  d="M13.045 0.456l8.306 8.316 0.088-0.088c0.17-0.167 0.403-0.27 0.661-0.27 0.25 0 0.477 0.097 0.646 0.256l-0-0 0.963 0.963c0.337 0.337 0.348 0.85 0.092 1.207l-0.004 0.008-0.158 0.212 6.797 6.797c0.607 0.607 0.607 1.578 0 2.185l-10.406 10.406c-0.607 0.607-1.578 0.607-2.185 0l-4.907-4.907c-0.171 0.215-0.434 0.352-0.728 0.352-0.257 0-0.49-0.105-0.658-0.274l-2.869-2.869c-0.167-0.17-0.27-0.403-0.27-0.661 0-0.25 0.097-0.477 0.256-0.646l-0 0 0.007-0.008 0.085-0.084-8.306-8.306c-0.607-0.607-0.607-1.578 0-2.185l10.406-10.406c0.607-0.607 1.578-0.607 2.185 0v0.001zM20.308 9.813l-1.938-1.937c-0.119-0.122-0.285-0.199-0.469-0.199s-0.35 0.076-0.469 0.198l-3.95 3.951c-0.122 0.121-0.197 0.289-0.197 0.474s0.075 0.353 0.197 0.474l1.93 1.93 0.673-0.673-1.727-1.727 3.542-3.553 1.731 1.737 0.676-0.676zM14.707 15.41l-1.935-1.935c-0.119-0.122-0.285-0.198-0.469-0.198s-0.35 0.076-0.469 0.198l-3.962 3.962c-0.265 0.254-0.265 0.673 0 0.938l1.933 1.933 0.68-0.68-1.732-1.726 3.553-3.542 1.726 1.725 0.675-0.674zM7.528 6.834l3.95 3.95c0.265 0.265 0.684 0.265 0.938-0.011l3.95-3.95c0.122-0.117 0.199-0.281 0.199-0.463 0-0 0-0 0-0v0h0.011c0-0.166-0.066-0.342-0.199-0.474l-3.95-3.95c-0.121-0.123-0.289-0.198-0.474-0.198s-0.354 0.076-0.474 0.198l-0 0-3.95 3.961c-0.265 0.254-0.265 0.673 0 0.938zM1.933 12.428l3.95 3.95c0.265 0.265 0.684 0.265 0.938 0l3.95-3.95c0.123-0.117 0.199-0.281 0.199-0.464 0-0.004-0-0.008-0-0.012v0.001h0.011c0-0.177-0.066-0.342-0.199-0.474l-3.95-3.95c-0.119-0.122-0.285-0.199-0.469-0.199s-0.35 0.076-0.469 0.198l-3.962 3.962c-0.265 0.254-0.265 0.673 0 0.938zM9.583 22.088l2.606 2.607 10.633-14.389-0.723-0.723-12.516 12.504z"></path>
</symbol>
<symbol id="icon-menu-icon" viewBox="0 0 32 32">
      <path d="M3.32 6.91c-.382.191-.547.518-.547 1.09s.165.899.547 1.09l.274.137h24.812l.274-.137c.382-.191.547-.518.547-1.09s-.165-.899-.547-1.09l-.274-.137H3.594l-.274.137zm0 8c-.382.191-.547.518-.547 1.09s.165.899.547 1.09l.274.137h24.812l.274-.137c.382-.191.547-.518.547-1.09s-.165-.899-.547-1.09l-.274-.137H3.594l-.274.137zm0 8c-.382.191-.547.518-.547 1.09s.165.899.547 1.09l.274.137h24.812l.274-.137c.382-.191.547-.518.547-1.09s-.165-.899-.547-1.09l-.274-.137H3.594l-.274.137z"/>
    </symbol>
<symbol id="icon-menu-tablet" viewBox="0 0 45 32">
<path stroke-linejoin="round" stroke-linecap="round" stroke-miterlimit="4" stroke-width="4" d="M3.2 16h38.4M3.2 3.2h38.4M3.2 28.8h38.4"></path>
</symbol>
<symbol id="icon-logo-tablet-mobile" viewBox="0 0 32 32">
<path d="M3.944 20.076l10.776-17.425 0.64-0.674 8.236 5.489 0.056 3.314 2.011 3.279-8.881 14.077-12.84-8.062z"></path>
<path stroke="#fd9222" style="stroke: var(--color1, #fd9222)" stroke-linejoin="round" stroke-linecap="round" stroke-miterlimit="4" stroke-width="2.7429" d="M21.635 23.88l-14.187-8.864M11.362 8.599l14.185 8.864M10.63 25.864l11.736-19.25M27.177 14.789c-3.040-1.897-4.235-3.383-2.278-6.59l-9.626-6.014-11.738 19.249 14.187 8.864 9.454-15.508z"></path>
</symbol>
<symbol id="icon-twitter-icon" viewBox="0 0 32 32">
      <path d="M21.12 2.699c-1.139.208-1.597.345-2.32.691-.881.423-1.711 1.045-2.281 1.713C15.403 6.41 14.8 7.852 14.69 9.478l-.037.545-.247-.029c-2.089-.245-3.967-.879-5.401-1.824-1.385-.913-3.087-2.579-4.421-4.329-.42-.552-.46-.592-.753-.748-.281-.149-.595-.135-.979.048-.427.201-.661.481-.839 1.005-.289.845-.584 2.247-.768 3.643-.131 1.001-.131 3.52 0 4.496.248 1.852.669 3.263 1.429 4.783 1.073 2.147 2.591 3.856 4.687 5.277l.533.361-.413.175c-1.621.708-3.509 1.12-5.494 1.12h-.042.002c-.499 0-.993.025-1.1.055a1.06 1.06 0 0 0-.681.551l-.003.006c-.112.22-.136.339-.136.693 0 .368.02.463.144.673.187.319.353.439 1.189.864 2.073 1.053 3.952 1.695 6.107 2.085 1.405.255 3.689.367 5.073.249 1.737-.148 3.2-.451 4.66-.963 4.72-1.656 8.313-4.949 10.36-9.495 1.125-2.501 1.692-5.183 1.745-8.279l.02-1.107.331-.404a11.734 11.734 0 0 0 2.187-4.178l.021-.083c.296-1.037.107-1.599-.637-1.884-.567-.217-.884-.155-1.635.327-.333.212-.833.509-1.112.659-.505.272-1.491.709-1.597.709-.031 0-.276-.167-.544-.371-.795-.603-1.821-1.063-2.927-1.309-.387-.085-1.988-.156-2.292-.101zm1.743 2.712c1.027.219 1.86.692 2.631 1.496.32.333.565.453.928.453.241 0 .819-.143 1.252-.308.119-.047-.067.2-.54.713-.545.592-.613.777-.529 1.455.155 1.251-.004 3.307-.396 5.127-.557 2.536-1.634 4.76-3.12 6.648l.027-.035c-.465.588-1.736 1.851-2.315 2.3-1.041.808-2.456 1.639-3.573 2.1-1.347.565-2.91.97-4.542 1.139l-.072.006c-.797.077-2.567.064-3.413-.025-.892-.095-2.08-.303-2.48-.435-.044-.015.196-.119.533-.229.912-.3 1.688-.636 2.427-1.033l-.08.039c.98-.499 1.844-1.036 2.064-1.283.297-.333.461-1.024.323-1.355-.155-.371-.339-.516-1.177-.925-3.961-1.94-6.103-4.66-6.828-8.673-.161-.895-.211-1.697-.179-2.959.028-1.085.061-1.507.172-2.144l.029-.171.464.483a26.71 26.71 0 0 0 1.975 1.802l.045.036c1.865 1.5 4.248 2.508 6.856 2.904.868.131 2.787.197 3.115.108.308-.077.561-.274.71-.537l.003-.006c.128-.229.133-.281.168-1.597.029-1.168.051-1.416.151-1.76a4.732 4.732 0 0 1 3.518-3.329l.031-.006c.432-.095 1.379-.096 1.823-.001z"/>
    </symbol>
<symbol id="icon-twitter-tab-desk" viewBox="0 0 32 32">
<path stroke-linejoin="round" stroke-linecap="round" stroke-miterlimit="4" stroke-width="2.6667" d="M30.667 4c-1.2 0.856-2.591 1.552-4.084 2.013l-0.103 0.027c-1.101-1.261-2.712-2.053-4.507-2.053-3.299 0-5.973 2.674-5.973 5.973 0 0.028 0 0.056 0.001 0.084l-0-0.004v1.333c-0.109 0.003-0.238 0.005-0.367 0.005-2.331 0-4.53-0.561-6.471-1.555l0.080 0.037c-2.093-1.053-4.56-3.563-5.908-5.48 0 0-4.667 12.953 7.333 18.287-2.442 1.677-5.462 2.679-8.716 2.679-0.217 0-0.433-0.004-0.648-0.013l0.031 0.001c12 6.667 26.667 0 26.667-15.333 0-0.372-0.037-0.741-0.107-1.107 1.323-1.305 2.293-2.963 2.758-4.822l0.015-0.071z"></path>
</symbol>
<symbol id="icon-instagram-mob" viewBox="0 0 32 32">
<path stroke-linejoin="round" stroke-linecap="round" stroke-miterlimit="4" stroke-width="2.1818" d="M22.668 2.666h-13.334c-3.682 0-6.666 2.985-6.666 6.666 0 0.001 0 0.001 0 0.002v-0 13.332c0 0 0 0.001 0 0.001 0 3.682 2.985 6.666 6.666 6.666h13.332c0 0 0.001 0 0.001 0 3.682 0 6.666-2.985 6.666-6.666 0-0 0-0.001 0-0.002v0-13.332c0-0 0-0.001 0-0.001 0-3.682-2.985-6.666-6.666-6.666-0 0-0.001 0-0.002 0h0z"></path>
<path stroke-linejoin="round" stroke-linecap="round" stroke-miterlimit="4" stroke-width="2.1818" d="M21.334 15.159c0.037 0.235 0.058 0.506 0.058 0.783 0 2.945-2.387 5.333-5.333 5.333-2.669 0-4.88-1.961-5.271-4.52l-0.004-0.030c-0.037-0.235-0.058-0.506-0.058-0.782 0-2.945 2.387-5.333 5.333-5.333 2.669 0 4.88 1.961 5.271 4.521l0.004 0.030z"></path>
<path stroke-linejoin="round" stroke-linecap="round" stroke-miterlimit="4" stroke-width="2.1818" d="M21.334 15.159c0.037 0.235 0.058 0.506 0.058 0.783 0 2.945-2.387 5.333-5.333 5.333-2.669 0-4.88-1.961-5.271-4.52l-0.004-0.030c-0.037-0.235-0.058-0.506-0.058-0.782 0-2.945 2.387-5.333 5.333-5.333 2.669 0 4.88 1.961 5.271 4.521l0.004 0.030zM23.332 8.666h0.015M23.332 8.666h0.015"></path>
</symbol>
<symbol id="icon-twitter-mob" viewBox="0 0 32 32">
<path stroke-linejoin="round" stroke-linecap="round" stroke-miterlimit="4" stroke-width="2.4" d="M30.667 4c-1.2 0.856-2.591 1.552-4.084 2.013l-0.103 0.027c-1.101-1.262-2.712-2.054-4.508-2.054-3.299 0-5.973 2.674-5.973 5.973 0 0.029 0 0.057 0.001 0.086l-0-0.004v1.333c-0.11 0.003-0.24 0.005-0.37 0.005-2.33 0-4.529-0.561-6.469-1.554l0.080 0.037c-2.094-1.054-3.894-3.142-5.242-5.061 0 0-5.333 12.533 6.667 17.867-2.442 1.677-5.462 2.678-8.715 2.678-0.218 0-0.435-0.005-0.65-0.013l0.031 0.001c12 6.667 26.667 0 26.667-15.333 0-0.371-0.037-0.742-0.107-1.107 1.323-1.305 2.294-2.963 2.759-4.822l0.015-0.071z"></path>
</symbol>
<symbol id="icon-twitter" viewBox="0 0 32 32">
<path fill="none"  stroke-linejoin="round" stroke-linecap="round" stroke-miterlimit="4" stroke-width="2.6667" d="M30.667 4c-1.277 0.901-2.691 1.589-4.187 2.040-0.803-0.923-1.87-1.578-3.057-1.875s-2.437-0.222-3.58 0.214c-1.143 0.436-2.125 1.213-2.812 2.226s-1.047 2.212-1.031 3.435v1.333c-2.343 0.061-4.665-0.459-6.759-1.513s-3.894-2.609-5.241-4.527c0 0-5.333 12 6.667 17.333-2.746 1.864-6.017 2.799-9.333 2.667 12 6.667 26.667 0 26.667-15.333-0.001-0.371-0.037-0.742-0.107-1.107 1.361-1.342 2.321-3.036 2.773-4.893z"></path>
</symbol>
<symbol id="icon-instagram" viewBox="0 0 32 32">
<path fill="none"  stroke-linejoin="round" stroke-linecap="round" stroke-miterlimit="4" stroke-width="2.6667" d="M22.667 2.667h-13.333c-3.682 0-6.667 2.985-6.667 6.667v13.333c0 3.682 2.985 6.667 6.667 6.667h13.333c3.682 0 6.667-2.985 6.667-6.667v-13.333c0-3.682-2.985-6.667-6.667-6.667z"></path>
<path fill="none"  stroke-linejoin="round" stroke-linecap="round" stroke-miterlimit="4" stroke-width="2.6667" d="M21.333 15.16c0.165 1.11-0.025 2.243-0.542 3.239s-1.334 1.803-2.336 2.307c-1.002 0.504-2.138 0.68-3.245 0.502s-2.131-0.701-2.924-1.494-1.316-1.816-1.494-2.924c-0.178-1.108-0.003-2.243 0.502-3.245s1.312-1.819 2.307-2.336c0.996-0.517 2.129-0.706 3.239-0.542 1.132 0.168 2.18 0.695 2.989 1.504s1.337 1.857 1.505 2.989z"></path>
<path fill="none"  stroke-linejoin="round" stroke-linecap="round" stroke-miterlimit="4" stroke-width="2.6667" d="M23.333 8.667h0.013"></path>
</symbol>
<symbol id="icon-check-mark" viewBox="0 0 53 32">
<path d="M29.189 20.981c-0.644 0.648-1.537 1.049-2.523 1.049s-1.878-0.401-2.523-1.049l-0-0-16.288-16.32c-0.65-0.685-1.567-1.112-2.583-1.112-1.965 0-3.557 1.593-3.557 3.557 0 1.009 0.42 1.919 1.094 2.566l0.001 0.001 16.32 16.32c1.93 1.926 4.594 3.118 7.536 3.118s5.606-1.191 7.536-3.118l16.32-16.32c0.603-0.636 0.974-1.498 0.974-2.446 0-1.965-1.593-3.557-3.557-3.557-0.956 0-1.824 0.377-2.463 0.991l0.001-0.001-16.288 16.32z"></path>
</symbol>
<symbol id="icon-close-modalka-white" viewBox="0 0 32 32">
<path stroke-linejoin="round" stroke-linecap="round" stroke-miterlimit="4" stroke-width="2.2857" d="M24 8l-16 16M8 8l16 16"></path>
</symbol>
<symbol id="icon-logo-desktop" viewBox="0 0 32 32">
<path d="M3.944 20.076l10.777-17.424 0.64-0.675 8.235 5.491 0.057 3.315 2.009 3.28-8.88 14.076-12.839-8.063z"></path>
<path stroke-linejoin="round" stroke-linecap="round" stroke-miterlimit="4" stroke-width="2.6667" d="M21.635 23.88l-14.187-8.864M11.361 8.599l14.185 8.864M10.629 25.864l11.736-19.249M27.176 14.788c-3.040-1.899-4.233-3.383-2.277-6.591l-9.627-6.016-11.735 19.251 14.187 8.864 9.453-15.507z"></path>
</symbol>
<symbol id="icon-Ñlose-icon-converted" viewBox="0 0 32 32">
      <path d="M7.494 6.621a2.519 2.519 0 0 0-.472.359l.001-.001c-.527.505-.657 1.068-.369 1.567.09.154 1.537 1.657 3.715 3.857l3.568 3.604-3.6 3.61c-2.806 2.813-3.628 3.665-3.721 3.865-.243.516-.115 1.039.374 1.529.49.489 1.012.617 1.529.374.199-.095 1.053-.916 3.869-3.725l3.613-3.604 3.613 3.604c2.816 2.809 3.67 3.631 3.869 3.725.516.243 1.039.115 1.529-.374.489-.49.617-1.012.374-1.529-.093-.199-.915-1.052-3.721-3.865l-3.601-3.61 3.569-3.607c2.135-2.157 3.626-3.706 3.715-3.856.294-.506.148-1.088-.403-1.594-.489-.451-.979-.563-1.439-.329-.143.073-1.519 1.398-3.849 3.706-1.994 1.977-3.645 3.587-3.67 3.58a351.043 351.043 0 0 1-3.665-3.601l.007.007C10.031 8.038 8.633 6.691 8.492 6.62a1.168 1.168 0 0 0-1.005.004l.007-.003z"/>
    </symbol>
    <symbol id="icon-choco" viewBox="0 0 32 32">
<path fill="#fcf1e0" style="fill: var(--color3, #fcf1e0)" d="M3.944 20.076l10.777-17.424 0.64-0.674 8.236 5.491 0.056 3.314 2.010 3.28-8.88 14.077-12.839-8.063z"></path>
<path fill="none" stroke="#fd9222" style="stroke: var(--color4, #fd9222)" stroke-linejoin="round" stroke-linecap="round" stroke-miterlimit="4" stroke-width="2.6667" d="M21.635 23.88l-14.185-8.864M11.361 8.599l14.185 8.864M10.63 25.864l11.736-19.25M27.176 14.789c-3.040-1.899-4.234-3.384-2.278-6.592l-9.626-6.015-11.736 19.25 14.186 8.864 9.454-15.507z"></path>
</symbol>
<symbol id="icon-insta-desk-tab" viewBox="0 0 32 32">
<path stroke-linejoin="round" stroke-linecap="round" stroke-miterlimit="4" stroke-width="2.6667" d="M22.667 2.667h-13.333c-3.682 0-6.667 2.985-6.667 6.667v0 13.333c0 3.682 2.985 6.667 6.667 6.667v0h13.333c3.682 0 6.667-2.985 6.667-6.667v0-13.333c0-3.682-2.985-6.667-6.667-6.667v0z"></path>
<path stroke-linejoin="round" stroke-linecap="round" stroke-miterlimit="4" stroke-width="2.6667" d="M21.333 15.16c0.037 0.235 0.058 0.506 0.058 0.782 0 2.946-2.388 5.334-5.334 5.334-2.67 0-4.881-1.962-5.272-4.522l-0.004-0.030c-0.037-0.235-0.058-0.506-0.058-0.782 0-2.946 2.388-5.334 5.334-5.334 2.67 0 4.881 1.962 5.272 4.522l0.004 0.030z"></path>
<path stroke-linejoin="round" stroke-linecap="round" stroke-miterlimit="4" stroke-width="2.6667" d="M21.333 15.16c0.037 0.235 0.058 0.506 0.058 0.782 0 2.946-2.388 5.334-5.334 5.334-2.67 0-4.881-1.962-5.272-4.522l-0.004-0.030c-0.037-0.235-0.058-0.506-0.058-0.782 0-2.946 2.388-5.334 5.334-5.334 2.67 0 4.881 1.962 5.272 4.522l0.004 0.030zM23.333 8.667h0.013M23.333 8.667h0.013"></path>
</symbol>
<symbol id="icon-twit-desk-tab" viewBox="0 0 37 32">
<path stroke-linejoin="round" stroke-linecap="round" stroke-miterlimit="4" stroke-width="3.0476" d="M35.048 3.048c-1.372 0.979-2.961 1.773-4.667 2.3l-0.118 0.031c-1.258-1.441-3.099-2.347-5.151-2.347-3.77 0-6.827 3.056-6.827 6.827 0 0.032 0 0.064 0.001 0.096l-0-0.005v1.524c-0.125 0.003-0.272 0.005-0.42 0.005-2.664 0-5.178-0.641-7.396-1.778l0.092 0.043c-2.392-1.204-5.211-4.072-6.752-6.263 0 0-5.333 14.804 8.381 20.899-2.791 1.917-6.243 3.062-9.962 3.062-0.248 0-0.495-0.005-0.74-0.015l0.035 0.001c13.714 7.619 30.476 0 30.476-17.524 0-0.425-0.043-0.847-0.122-1.265 1.512-1.491 2.621-3.387 3.152-5.511l0.017-0.081z"></path>
</symbol>
<symbol id="icon-twitter-icon" viewBox="0 0 32 32">
    <path d="M21.12 2.699c-1.139.208-1.597.345-2.32.691-.881.423-1.711 1.045-2.281 1.713C15.403 6.41 14.8 7.852 14.69 9.478l-.037.545-.247-.029c-2.089-.245-3.967-.879-5.401-1.824-1.385-.913-3.087-2.579-4.421-4.329-.42-.552-.46-.592-.753-.748-.281-.149-.595-.135-.979.048-.427.201-.661.481-.839 1.005-.289.845-.584 2.247-.768 3.643-.131 1.001-.131 3.52 0 4.496.248 1.852.669 3.263 1.429 4.783 1.073 2.147 2.591 3.856 4.687 5.277l.533.361-.413.175c-1.621.708-3.509 1.12-5.494 1.12h-.042.002c-.499 0-.993.025-1.1.055a1.06 1.06 0 0 0-.681.551l-.003.006c-.112.22-.136.339-.136.693 0 .368.02.463.144.673.187.319.353.439 1.189.864 2.073 1.053 3.952 1.695 6.107 2.085 1.405.255 3.689.367 5.073.249 1.737-.148 3.2-.451 4.66-.963 4.72-1.656 8.313-4.949 10.36-9.495 1.125-2.501 1.692-5.183 1.745-8.279l.02-1.107.331-.404a11.734 11.734 0 0 0 2.187-4.178l.021-.083c.296-1.037.107-1.599-.637-1.884-.567-.217-.884-.155-1.635.327-.333.212-.833.509-1.112.659-.505.272-1.491.709-1.597.709-.031 0-.276-.167-.544-.371-.795-.603-1.821-1.063-2.927-1.309-.387-.085-1.988-.156-2.292-.101zm1.743 2.712c1.027.219 1.86.692 2.631 1.496.32.333.565.453.928.453.241 0 .819-.143 1.252-.308.119-.047-.067.2-.54.713-.545.592-.613.777-.529 1.455.155 1.251-.004 3.307-.396 5.127-.557 2.536-1.634 4.76-3.12 6.648l.027-.035c-.465.588-1.736 1.851-2.315 2.3-1.041.808-2.456 1.639-3.573 2.1-1.347.565-2.91.97-4.542 1.139l-.072.006c-.797.077-2.567.064-3.413-.025-.892-.095-2.08-.303-2.48-.435-.044-.015.196-.119.533-.229.912-.3 1.688-.636 2.427-1.033l-.08.039c.98-.499 1.844-1.036 2.064-1.283.297-.333.461-1.024.323-1.355-.155-.371-.339-.516-1.177-.925-3.961-1.94-6.103-4.66-6.828-8.673-.161-.895-.211-1.697-.179-2.959.028-1.085.061-1.507.172-2.144l.029-.171.464.483a26.71 26.71 0 0 0 1.975 1.802l.045.036c1.865 1.5 4.248 2.508 6.856 2.904.868.131 2.787.197 3.115.108.308-.077.561-.274.71-.537l.003-.006c.128-.229.133-.281.168-1.597.029-1.168.051-1.416.151-1.76a4.732 4.732 0 0 1 3.518-3.329l.031-.006c.432-.095 1.379-.096 1.823-.001z"/>
    </symbol>
    <symbol id="icon-instagram-icon-mobile" viewBox="0 0 32 32">
    <path d="M8.084 1.684A7.794 7.794 0 0 0 1.911 7.11l-.014.055C1.593 8.215 1.6 8.003 1.6 16s-.007 7.785.297 8.835c.76 2.545 2.724 4.508 5.213 5.254l.055.014c1.05.304.838.297 8.835.297s7.785.007 8.835-.297c2.545-.76 4.508-2.724 5.254-5.213l.014-.055c.304-1.05.297-.838.297-8.835s.007-7.785-.297-8.835c-.76-2.545-2.724-4.508-5.213-5.254l-.055-.014c-1.053-.304-.826-.297-8.9-.291-5.911.006-7.514.022-7.85.079zm15.072 2.104a5.455 5.455 0 0 1 3.32 1.493l-.002-.002a5.518 5.518 0 0 1 1.737 3.544l.002.021c.073.768.073 13.545 0 14.313a5.455 5.455 0 0 1-1.493 3.32l.002-.002a5.518 5.518 0 0 1-3.544 1.737l-.021.002c-.768.073-13.545.073-14.313 0a5.523 5.523 0 0 1-3.562-1.735l-.003-.003a5.444 5.444 0 0 1-1.49-3.298l-.001-.02c-.073-.768-.073-13.545 0-14.313a5.455 5.455 0 0 1 1.493-3.32l-.002.002c.913-.972 2.189-1.61 3.468-1.734.676-.065 13.724-.07 14.41-.004zM22.8 7.67c-.384.183-.561.502-.559 1.008.003.698.401 1.088 1.104 1.078.735-.009 1.081-.356 1.081-1.084 0-.452-.127-.748-.401-.934-.266-.18-.913-.215-1.225-.068zm-7.2 1.854a6.656 6.656 0 0 0-2.428.684l.038-.018c-2.134 1.06-3.574 3.225-3.574 5.726 0 .204.01.406.028.605l-.002-.025a6.231 6.231 0 0 0 1.058 3.02l-.014-.022a6.496 6.496 0 0 0 4.321 2.796l.038.005c.534.084 1.632.071 2.131-.026 2.652-.512 4.672-2.516 5.185-5.145.116-.592.116-1.743.001-2.324-.273-1.383-.82-2.419-1.792-3.392a6.178 6.178 0 0 0-3.3-1.773l-.038-.006a8.556 8.556 0 0 0-1.667-.104h.014zm1.251 2.269c.809.127 1.599.556 2.243 1.216 1.956 2.009 1.42 5.377-1.062 6.665-.72.372-1.094.46-1.978.46-.662 0-.832-.019-1.174-.125a4.329 4.329 0 0 1-2.872-2.832L12 17.146c-.169-.532-.207-1.516-.081-2.086.217-.992.835-1.955 1.604-2.505 1.018-.726 2.052-.963 3.328-.762z"/>
    </symbol>
<symbol id="icon-instagram-icon-mobile" viewBox="0 0 32 32">
      <path d="M8.084 1.684A7.794 7.794 0 0 0 1.911 7.11l-.014.055C1.593 8.215 1.6 8.003 1.6 16s-.007 7.785.297 8.835c.76 2.545 2.724 4.508 5.213 5.254l.055.014c1.05.304.838.297 8.835.297s7.785.007 8.835-.297c2.545-.76 4.508-2.724 5.254-5.213l.014-.055c.304-1.05.297-.838.297-8.835s.007-7.785-.297-8.835c-.76-2.545-2.724-4.508-5.213-5.254l-.055-.014c-1.053-.304-.826-.297-8.9-.291-5.911.006-7.514.022-7.85.079zm15.072 2.104a5.455 5.455 0 0 1 3.32 1.493l-.002-.002a5.518 5.518 0 0 1 1.737 3.544l.002.021c.073.768.073 13.545 0 14.313a5.455 5.455 0 0 1-1.493 3.32l.002-.002a5.518 5.518 0 0 1-3.544 1.737l-.021.002c-.768.073-13.545.073-14.313 0a5.523 5.523 0 0 1-3.562-1.735l-.003-.003a5.444 5.444 0 0 1-1.49-3.298l-.001-.02c-.073-.768-.073-13.545 0-14.313a5.455 5.455 0 0 1 1.493-3.32l-.002.002c.913-.972 2.189-1.61 3.468-1.734.676-.065 13.724-.07 14.41-.004zM22.8 7.67c-.384.183-.561.502-.559 1.008.003.698.401 1.088 1.104 1.078.735-.009 1.081-.356 1.081-1.084 0-.452-.127-.748-.401-.934-.266-.18-.913-.215-1.225-.068zm-7.2 1.854a6.656 6.656 0 0 0-2.428.684l.038-.018c-2.134 1.06-3.574 3.225-3.574 5.726 0 .204.01.406.028.605l-.002-.025a6.231 6.231 0 0 0 1.058 3.02l-.014-.022a6.496 6.496 0 0 0 4.321 2.796l.038.005c.534.084 1.632.071 2.131-.026 2.652-.512 4.672-2.516 5.185-5.145.116-.592.116-1.743.001-2.324-.273-1.383-.82-2.419-1.792-3.392a6.178 6.178 0 0 0-3.3-1.773l-.038-.006a8.556 8.556 0 0 0-1.667-.104h.014zm1.251 2.269c.809.127 1.599.556 2.243 1.216 1.956 2.009 1.42 5.377-1.062 6.665-.72.372-1.094.46-1.978.46-.662 0-.832-.019-1.174-.125a4.329 4.329 0 0 1-2.872-2.832L12 17.146c-.169-.532-.207-1.516-.081-2.086.217-.992.835-1.955 1.604-2.505 1.018-.726 2.052-.963 3.328-.762z"/>
    </symbol>
<symbol id="icon-twitter-footer" viewBox="0 0 32 32">
<path stroke-linejoin="round" stroke-linecap="round" stroke-miterlimit="4" stroke-width="2.6667" d="M30.667 4c-1.2 0.856-2.591 1.552-4.084 2.013l-0.103 0.027c-1.101-1.261-2.712-2.053-4.507-2.053-3.299 0-5.973 2.674-5.973 5.973 0 0.028 0 0.056 0.001 0.084l-0-0.004v1.333c-0.11 0.003-0.239 0.005-0.368 0.005-4.79 0-9.027-2.37-11.602-6.001l-0.030-0.044s-5.333 12 6.667 17.333c-2.442 1.677-5.462 2.679-8.716 2.679-0.217 0-0.433-0.004-0.648-0.013l0.031 0.001c12 6.667 26.667 0 26.667-15.333 0-0.372-0.037-0.741-0.107-1.107 1.323-1.305 2.293-2.963 2.758-4.822l0.015-0.071z"></path>
</symbol>
<symbol id="icon-mastercard" viewBox="0 0 51 32">
<path fill="#ed0006" style="fill: var(--color2, #ed0006)" d="M25.6 26.934c-2.529 2.186-5.849 3.518-9.481 3.518-0.005 0-0.011 0-0.016 0h0.001c-8.086 0-14.64-6.592-14.64-14.726 0-8.133 6.554-14.726 14.64-14.726 3.622 0 6.939 1.325 9.496 3.518 2.529-2.186 5.849-3.518 9.481-3.518 0.005 0 0.011 0 0.016 0h-0.001c8.086 0 14.64 6.592 14.64 14.726 0 8.133-6.554 14.726-14.64 14.726-0.005 0-0.010 0-0.015 0-3.631 0-6.952-1.332-9.499-3.534l0.018 0.016z"></path>
<path fill="#f9a000" style="fill: var(--color3, #f9a000)" d="M25.6 26.934c3.157-2.717 5.144-6.719 5.144-11.184 0-0.008 0-0.017-0-0.025v0.001c0-0.007 0-0.016 0-0.024 0-4.465-1.987-8.466-5.125-11.168l-0.019-0.016c2.529-2.186 5.849-3.518 9.481-3.518 0.005 0 0.011 0 0.016 0h-0.001c8.086 0 14.64 6.592 14.64 14.726 0 8.133-6.554 14.726-14.64 14.726-0.005 0-0.010 0-0.015 0-3.631 0-6.952-1.332-9.499-3.534l0.018 0.016z"></path>
<path fill="#ff5e00" style="fill: var(--color4, #ff5e00)" d="M25.6 26.934c3.157-2.717 5.144-6.719 5.144-11.184 0-0.008 0-0.017-0-0.025v0.001c0-0.007 0-0.016 0-0.024 0-4.465-1.987-8.466-5.125-11.168l-0.019-0.016c-3.157 2.717-5.144 6.719-5.144 11.184 0 0.008 0 0.017 0 0.025v-0.001c0 0.007-0 0.016-0 0.025 0 4.465 1.987 8.466 5.125 11.167l0.019 0.016z"></path>
</symbol>
<symbol id="icon-ukraine" viewBox="0 0 41 32">
<path fill="#ffd700" style="fill: var(--color5, #ffd700)" d="M40.745 1.354h-40.435v30.092h40.435v-30.092z"></path>
<path fill="#0057b7" style="fill: var(--color6, #0057b7)" d="M0.311 1.354h40.434v15.045h-40.435v-15.045z"></path>
</symbol>
<symbol id="icon-play" viewBox="0 0 32 32">
<path fill="#f5f4f4" style="fill: var(--color1, #f5f4f4)" d="M10.909 24v-15.273l14.545 7.636-14.545 7.636z"></path>
<path fill="none" stroke="#fff" style="stroke: var(--color2, #fff)" stroke-linejoin="miter" stroke-linecap="butt" stroke-miterlimit="4" stroke-width="0.7273" d="M31.636 16c0 8.636-7.001 15.636-15.636 15.636s-15.636-7.001-15.636-15.636c0-8.636 7.001-15.636 15.636-15.636s15.636 7.001 15.636 15.636z"></path>
</symbol>
</defs>
</svg>


  

